<svg width="95" height="17" viewBox="0 0 95 17" fill="none" xmlns="http://www.w3.org/2000/svg">
<g clip-path="url(#clip0_14783_3133)">
<rect y="0.536072" width="26.6667" height="16" rx="2.66667" fill="#E0FCDE"/>
<path d="M7.70314 12.0361L5.65626 6.37982H6.85418L8.26564 10.8902H8.35418L9.76043 6.37982H10.9479L8.90626 12.0361H7.70314ZM12.583 5.3694C12.1924 5.3694 11.8747 5.0517 11.8747 4.66628C11.8747 4.27565 12.1924 3.95795 12.583 3.95795C12.9684 3.95795 13.2913 4.27565 13.2913 4.66628C13.2913 5.0517 12.9684 5.3694 12.583 5.3694ZM12.0153 12.0361V6.37982H13.1403V12.0361H12.0153ZM14.6972 13.9215V6.37982H15.8274V7.27045H15.9108C16.2389 6.65065 16.8587 6.28086 17.6504 6.28086C19.0774 6.28086 19.9941 7.42149 19.9941 9.20274V9.21316C19.9941 11.0048 19.0879 12.1298 17.6504 12.1298C16.8743 12.1298 16.2129 11.7496 15.9108 11.1402H15.8274V13.9215H14.6972ZM17.3326 11.1663C18.2754 11.1663 18.8431 10.4267 18.8431 9.21316V9.20274C18.8431 7.98399 18.2754 7.24961 17.3326 7.24961C16.3899 7.24961 15.8066 7.9944 15.8066 9.20274V9.21316C15.8066 10.4215 16.3899 11.1663 17.3326 11.1663Z" fill="#405261"/>
</g>
<g clip-path="url(#clip1_14783_3133)">
<rect x="30.6667" y="0.536072" width="63.6667" height="16" rx="2.66667" fill="#DFE6EB"/>
<path d="M38.8698 12.1454C37.5052 12.1454 36.6406 11.5048 36.5313 10.5569V10.5517H37.6615L37.6667 10.5569C37.8073 10.984 38.2188 11.2704 38.8906 11.2704C39.5885 11.2704 40.0729 10.9527 40.0729 10.4892V10.4788C40.0729 10.1246 39.8073 9.88503 39.151 9.73399L38.25 9.52566C37.1823 9.28086 36.6875 8.79649 36.6875 7.96836V7.96315C36.6875 6.97878 37.6042 6.27045 38.8854 6.27045C40.1771 6.27045 41.0052 6.91628 41.1042 7.83815V7.84336H40.026V7.83295C39.9167 7.43711 39.5156 7.14024 38.8802 7.14024C38.2604 7.14024 37.8125 7.44753 37.8125 7.90065V7.91107C37.8125 8.26524 38.0729 8.48399 38.7083 8.63503L39.6042 8.83816C40.6927 9.09336 41.2135 9.55691 41.2135 10.3746V10.385C41.2135 11.4319 40.2135 12.1454 38.8698 12.1454ZM44.0257 12.1298C42.9476 12.1298 42.1507 11.4736 42.1507 10.4475V10.4371C42.1507 9.4267 42.9111 8.83816 44.2601 8.75482L45.7913 8.66628V8.16628C45.7913 7.54649 45.4007 7.20274 44.6351 7.20274C44.0101 7.20274 43.5986 7.4319 43.4632 7.83295L43.458 7.85378H42.3694L42.3747 7.81732C42.5101 6.89024 43.4007 6.27045 44.6872 6.27045C46.109 6.27045 46.9111 6.97878 46.9111 8.16628V12.0361H45.7913V11.234H45.7028C45.3694 11.8069 44.7757 12.1298 44.0257 12.1298ZM43.2757 10.4007C43.2757 10.9215 43.7184 11.2288 44.3278 11.2288C45.1715 11.2288 45.7913 10.6767 45.7913 9.94753V9.46316L44.4111 9.5517C43.6299 9.59857 43.2757 9.87982 43.2757 10.3902V10.4007ZM48.4681 12.0361V4.16107H49.5983V12.0361H48.4681ZM53.5667 12.1454C51.9104 12.1454 50.9104 11.0152 50.9104 9.22357V9.21836C50.9104 7.45274 51.9312 6.27045 53.5094 6.27045C55.0875 6.27045 56.0563 7.41107 56.0563 9.10899V9.50482H52.0458C52.0667 10.5882 52.6604 11.2184 53.5927 11.2184C54.3167 11.2184 54.749 10.859 54.8844 10.5673L54.9052 10.5257L55.9938 10.5204L55.9833 10.5673C55.7958 11.3121 55.0146 12.1454 53.5667 12.1454ZM53.5146 7.19753C52.7438 7.19753 52.1604 7.72357 52.0615 8.69753H54.9365C54.8479 7.68711 54.2802 7.19753 53.5146 7.19753ZM59.3684 12.1454C58.0038 12.1454 57.1392 11.5048 57.0299 10.5569V10.5517H58.1601L58.1653 10.5569C58.3059 10.984 58.7174 11.2704 59.3892 11.2704C60.0872 11.2704 60.5715 10.9527 60.5715 10.4892V10.4788C60.5715 10.1246 60.3059 9.88503 59.6497 9.73399L58.7486 9.52566C57.6809 9.28086 57.1861 8.79649 57.1861 7.96836V7.96315C57.1861 6.97878 58.1028 6.27045 59.384 6.27045C60.6757 6.27045 61.5038 6.91628 61.6028 7.83815V7.84336H60.5247V7.83295C60.4153 7.43711 60.0142 7.14024 59.3788 7.14024C58.759 7.14024 58.3111 7.44753 58.3111 7.90065V7.91107C58.3111 8.26524 58.5715 8.48399 59.2069 8.63503L60.1028 8.83816C61.1913 9.09336 61.7122 9.55691 61.7122 10.3746V10.385C61.7122 11.4319 60.7122 12.1454 59.3684 12.1454ZM62.9566 9.52566V8.4892H66.441V9.52566H62.9566ZM68.0188 12.0361V4.16107H69.149V12.0361H68.0188ZM73.1174 12.1454C71.4611 12.1454 70.4611 11.0152 70.4611 9.22357V9.21836C70.4611 7.45274 71.4819 6.27045 73.0601 6.27045C74.6382 6.27045 75.6069 7.41107 75.6069 9.10899V9.50482H71.5965C71.6174 10.5882 72.2111 11.2184 73.1434 11.2184C73.8674 11.2184 74.2997 10.859 74.4351 10.5673L74.4559 10.5257L75.5444 10.5204L75.534 10.5673C75.3465 11.3121 74.5653 12.1454 73.1174 12.1454ZM73.0653 7.19753C72.2944 7.19753 71.7111 7.72357 71.6122 8.69753H74.4872C74.3986 7.68711 73.8309 7.19753 73.0653 7.19753ZM78.4139 12.1298C77.3358 12.1298 76.5389 11.4736 76.5389 10.4475V10.4371C76.5389 9.4267 77.2993 8.83816 78.6483 8.75482L80.1795 8.66628V8.16628C80.1795 7.54649 79.7889 7.20274 79.0233 7.20274C78.3983 7.20274 77.9868 7.4319 77.8514 7.83295L77.8462 7.85378H76.7576L76.7628 7.81732C76.8983 6.89024 77.7889 6.27045 79.0753 6.27045C80.4972 6.27045 81.2993 6.97878 81.2993 8.16628V12.0361H80.1795V11.234H80.091C79.7576 11.8069 79.1639 12.1298 78.4139 12.1298ZM77.6639 10.4007C77.6639 10.9215 78.1066 11.2288 78.716 11.2288C79.5597 11.2288 80.1795 10.6767 80.1795 9.94753V9.46316L78.7993 9.5517C78.0181 9.59857 77.6639 9.87982 77.6639 10.3902V10.4007ZM84.8667 12.1298C83.4448 12.1298 82.5229 10.9892 82.5229 9.21316V9.20274C82.5229 7.41107 83.4292 6.28086 84.8667 6.28086C85.6427 6.28086 86.3042 6.66628 86.6063 7.27565H86.6948V4.16107H87.8198V12.0361H86.6948V11.1454H86.6063C86.2781 11.7652 85.6583 12.1298 84.8667 12.1298ZM85.1896 11.1663C86.1323 11.1663 86.7104 10.4215 86.7104 9.21316V9.20274C86.7104 7.9944 86.1271 7.24961 85.1896 7.24961C84.2417 7.24961 83.674 7.9892 83.674 9.20274V9.21316C83.674 10.4267 84.2417 11.1663 85.1896 11.1663Z" fill="#405261"/>
</g>
<defs>
<clipPath id="clip0_14783_3133">
<rect y="0.536072" width="26.6667" height="16" rx="2.66667" fill="white"/>
</clipPath>
<clipPath id="clip1_14783_3133">
<rect x="30.6667" y="0.536072" width="63.6667" height="16" rx="2.66667" fill="white"/>
</clipPath>
</defs>
</svg>
